<svg version="1.2" xmlns="http://www.w3.org/2000/svg" viewBox="0 0 946 212" width="946" height="212"><style>.a{fill:#0866ff}</style><path class="a" d="m808.6 186.9h29.5v-47.7l41.1 47.7h36.1l-47.9-55 40.9-47.6h-32.8l-37.4 43.9v-97l-29.5 3.9zm-68-105.3c-32.7 0-55.5 22-55.5 53.9 0 32 22.8 54 55.5 54 32.7 0 55.5-22 55.5-54 0-31.9-22.8-53.9-55.5-53.9zm0 82.7c-15.2 0-25.6-11.7-25.6-28.8 0-17 10.4-28.8 25.6-28.8 15.2 0 25.5 11.8 25.5 28.8 0 17.1-10.3 28.8-25.5 28.8zm-119.8-82.7c-32.7 0-55.5 22-55.5 53.9 0 32 22.8 54 55.5 54 32.7 0 55.4-22 55.4-54 0-31.9-22.7-53.9-55.4-53.9zm0 82.7c-15.2 0-25.6-11.7-25.6-28.8 0-17 10.4-28.8 25.6-28.8 15.2 0 25.5 11.8 25.5 28.8 0 17.1-10.3 28.8-25.5 28.8zm-112.8-82.7c-13.7 0-25 5.4-32.1 15.2v-65.6l-29.5 3.8v151.8h26.2l0.5-15.8c7 11.8 19.5 18.5 34.9 18.5 27.9 0 48.4-22.8 48.4-54 0-31.2-20.4-53.9-48.4-53.9zm-7 82.7c-15.2 0-25.6-11.7-25.6-28.8 0-17 10.4-28.8 25.6-28.8 15.1 0 25.5 11.8 25.5 28.8 0 17.1-10.4 28.8-25.5 28.8zm-113.7 1.4c-15.6 0-26.8-7.3-30.7-19.8h72.7c0.7-3.9 1.2-8.4 1.2-11.5 0-33-18.5-52.8-49.6-52.8-31.3 0-53 22-53 53.9 0 32.4 22.8 54 56.5 54 17.5 0 34.4-5.9 45.1-15.6l-10.7-18.7c-10.3 7.1-20.4 10.5-31.5 10.5zm-6.5-61.2c13.6 0 22.3 8.3 22.3 21.1v0.1h-47.1c2.8-13.6 11.6-21.2 24.8-21.2zm-99 85c15.2 0 30.2-5.8 40.7-16l-11.6-19.4c-8.1 6.4-17.4 9.9-26.2 9.9-16.4 0-27.3-11.5-27.3-28.4 0-17 10.9-28.4 27.3-28.4 8.1 0 16.9 2.9 24 8.1l11.7-19.8c-9.5-8.6-24.1-13.9-38.7-13.9-32 0-54.6 22.4-54.6 54 0 31.5 22.6 53.9 54.7 53.9zm-93.8-105.3l-0.5 16c-7-11.9-19.5-18.6-34.8-18.6-28.1 0-48.5 22.8-48.5 54 0 31.2 20.5 53.9 48.5 53.9 15.3 0 27.9-6.7 34.8-18.5l0.5 15.9h26.2v-102.7zm-28.4 80.1c-15.1 0-25.5-11.7-25.5-28.8 0-17 10.4-28.8 25.5-28.8 15.2 0 25.6 11.8 25.6 28.8 0 17.1-10.5 28.8-25.6 28.8zm-57.6-79.9h-26.6v-8.7c0-13.1 5.2-18.2 18.5-18.2 4.1 0 7.4 0.1 9.4 0.3v-22.5c-3.7-1-12.5-2-17.7-2-27.1 0-39.6 12.8-39.6 40.4v10.7h-16.7v24.8h16.7v77.6h29.5v-77.6h21.9z"/></svg>